<svg xmlns="http://www.w3.org/2000/svg" xmlns:xlink="http://www.w3.org/1999/xlink" viewBox="0 0 673.6 514.57"><defs><style>.cls-1{isolation:isolate;}.cls-2{fill:url(#linear-gradient);}.cls-3{fill:url(#linear-gradient-2);}.cls-4{fill:url(#linear-gradient-3);}.cls-5{fill:url(#linear-gradient-4);}.cls-6,.cls-7{mix-blend-mode:screen;}.cls-6{fill:url(#linear-gradient-5);}.cls-7{fill:url(#linear-gradient-6);}.cls-8{fill:url(#linear-gradient-7);}.cls-9{fill:url(#linear-gradient-8);}.cls-10{fill:url(#linear-gradient-9);}.cls-11{fill:url(#linear-gradient-10);}.cls-12{fill:url(#linear-gradient-11);}.cls-13,.cls-15,.cls-17{mix-blend-mode:lighten;}.cls-13{fill:url(#linear-gradient-12);}.cls-14{mix-blend-mode:hard-light;fill:url(#linear-gradient-13);}.cls-15{fill:url(#linear-gradient-14);}.cls-16{mix-blend-mode:hue;fill:url(#linear-gradient-15);}.cls-17{fill:url(#linear-gradient-16);}</style><linearGradient id="linear-gradient" x1="565.36" y1="153.95" x2="767.77" y2="153.95" gradientTransform="translate(-380.93 519.46) rotate(-45)" gradientUnits="userSpaceOnUse"><stop offset="0" stop-color="#c0e0b2" stop-opacity="0.9"/><stop offset="1" stop-color="#e97fdf"/></linearGradient><linearGradient id="linear-gradient-2" x1="477.12" y1="251.67" x2="47.63" y2="251.67" gradientTransform="matrix(1, 0, 0, -1, 17.62, 413.91)" gradientUnits="userSpaceOnUse"><stop offset="0" stop-color="#81d1f4" stop-opacity="0.2"/><stop offset="0.19" stop-color="#adaeed" stop-opacity="0.2"/><stop offset="0.55" stop-color="#df87e5" stop-opacity="0.2"/><stop offset="1" stop-color="#ef7ae2" stop-opacity="0.2"/></linearGradient><linearGradient id="linear-gradient-3" x1="14.33" y1="175.52" x2="216.74" y2="175.52" gradientUnits="userSpaceOnUse"><stop offset="0" stop-color="#57dee9"/><stop offset="1" stop-color="#81d1f4" stop-opacity="0.2"/></linearGradient><linearGradient id="linear-gradient-4" x1="4.98" y1="348.57" x2="673.6" y2="348.57" gradientUnits="userSpaceOnUse"><stop offset="0" stop-color="#e97fdf"/><stop offset="1" stop-color="#ffdece" stop-opacity="0.9"/></linearGradient><linearGradient id="linear-gradient-5" x1="497.91" y1="186.24" x2="68.43" y2="186.24" gradientUnits="userSpaceOnUse"><stop offset="0" stop-color="#62f2e2" stop-opacity="0.6"/><stop offset="1" stop-color="#81d1f4" stop-opacity="0.2"/></linearGradient><linearGradient id="linear-gradient-6" x1="597.91" y1="283.24" x2="168.43" y2="283.24" xlink:href="#linear-gradient-5"/><linearGradient id="linear-gradient-7" x1="644.78" y1="195.2" x2="215.29" y2="195.2" xlink:href="#linear-gradient-5"/><linearGradient id="linear-gradient-8" y1="175.52" x2="202.41" y2="175.52" gradientUnits="userSpaceOnUse"><stop offset="0" stop-color="#bae6e9"/><stop offset="1" stop-color="#81d1f4" stop-opacity="0.2"/></linearGradient><linearGradient id="linear-gradient-9" x1="269" y1="50.42" x2="440.05" y2="50.42" gradientTransform="translate(167.86 -69.26) rotate(37.05)" gradientUnits="userSpaceOnUse"><stop offset="0" stop-color="#c0ffd8" stop-opacity="0.2"/><stop offset="1" stop-color="#5cb3df"/></linearGradient><linearGradient id="linear-gradient-10" x1="464.35" y1="32.08" x2="293.3" y2="32.08" gradientTransform="translate(167.86 -69.26) rotate(37.05)" xlink:href="#linear-gradient-2"/><linearGradient id="linear-gradient-11" x1="273.43" y1="239.57" x2="144.17" y2="239.57" gradientUnits="userSpaceOnUse"><stop offset="0" stop-color="#ba9ee9"/><stop offset="1" stop-color="#81d1f4" stop-opacity="0.2"/></linearGradient><linearGradient id="linear-gradient-12" x1="244.64" y1="175.52" x2="447.05" y2="175.52" gradientTransform="matrix(-1, 0, 0, 1, 913.62, 0)" xlink:href="#linear-gradient-11"/><linearGradient id="linear-gradient-13" x1="307.78" y1="135.67" x2="510.18" y2="135.67" gradientTransform="matrix(-1, 0, 0, 1, 913.62, 0)" gradientUnits="userSpaceOnUse"><stop offset="0" stop-color="#81d1f4" stop-opacity="0.2"/><stop offset="1" stop-color="#4eeee9" stop-opacity="0.4"/></linearGradient><linearGradient id="linear-gradient-14" x1="78.01" y1="188.33" x2="380.78" y2="188.33" gradientTransform="matrix(0.43, -0.54, 0.67, 0.54, -17.5, 234.96)" gradientUnits="userSpaceOnUse"><stop offset="0" stop-color="#b8ffff"/><stop offset="1" stop-color="#c0ffd8" stop-opacity="0.2"/></linearGradient><linearGradient id="linear-gradient-15" x1="358" y1="467.33" x2="660.77" y2="467.33" gradientTransform="matrix(-0.43, -0.54, -0.67, 0.54, 1002.5, 234.96)" gradientUnits="userSpaceOnUse"><stop offset="0" stop-color="#81d1f4" stop-opacity="0.2"/><stop offset="1" stop-color="#eb72cd" stop-opacity="0.7"/></linearGradient><linearGradient id="linear-gradient-16" x1="3.98" y1="348.57" x2="673.48" y2="348.57" gradientUnits="userSpaceOnUse"><stop offset="0" stop-color="#fff5df"/><stop offset="0.11" stop-color="#fff4dc" stop-opacity="0.94"/><stop offset="0.32" stop-color="#fff0d4" stop-opacity="0.79"/><stop offset="0.62" stop-color="#ffebc8" stop-opacity="0.55"/><stop offset="0.97" stop-color="#ffe4b6" stop-opacity="0.23"/><stop offset="1" stop-color="#ffe3b5" stop-opacity="0.2"/></linearGradient></defs><title>Asset 11</title><g class="cls-1"><g id="Layer_2" data-name="Layer 2"><g id="Layer_1-2" data-name="Layer 1"><path class="cls-2" d="M366.75,181.37s-187.44-196.3-335-48.76C31.77,132.61,238.83,309.28,366.75,181.37Z"/><path class="cls-3" d="M287.72,36.33l2.76,33.18,11.07-2.76s-5.53,36,2.76,44.25,33.19-5.54,44.25-5.54,47,8.3,55.31-2.76,11.06-22.12,13.83-19.36-13.83,49.78,0,58.08,69.14,16.59,71.9,24.89,8.3,19.35,2.77,22.12-16.6,5.53-22.13,0-8.29-5.53-13.83-8.3-5.53,0-22.12,0-33.19-2.76-33.19,0,44.25,33.19,52.55,33.19h16.59s5.53,58.08-8.29,66.37-58.08,24.89-94,5.53S345.79,254.8,332,257.57s-27.66,13.83-30.42,13.83-2.77-22.13-8.3-22.13-22.12,8.3-27.66,11.06,0-30.42-5.53-30.42-38.71-2.76-44.24-2.76,5.53-16.6-2.77-16.6-44.25,13.83-55.31,8.3-16.59-30.42-16.59-30.42,22.12-22.12,27.65-16.59-19.36-8.3-19.36-16.6-2.76-19.35-8.29-19.35-13.83,2.76-11.07,11.06a13.9,13.9,0,0,1-2.76,13.83H113.49L108,158v11.06s11.06,5.53,8.3,8.3S91.37,194,83.07,191.2s-16.59-27.66-16.59-36,24.89-19.35,16.59-22.12-16.59-2.77-16.59-8.3-2.77-11.06,0-13.82,33.18-8.3,33.18-8.3,59.87-80.11,85.25-71.86,50.26-11.11,53,22.08S260.06,19.73,287.72,36.33Z"/><path class="cls-4" d="M216.72,311.2S223,39.85,14.33,39.85C14.33,39.85,35.82,311.2,216.72,311.2Z"/><path class="cls-5" d="M5,182.57c0,183.36,149.67,332,334.31,332s334.31-148.64,334.31-332Z"/><path class="cls-6" d="M290.9,312.16,293.66,279l11.07,2.77s-5.54-36,2.76-44.25S340.68,243,351.74,243s47-8.3,55.31,2.76,11.06,22.13,13.83,19.36-13.83-49.78,0-58.07,69.13-16.6,71.9-24.89,8.3-19.36,2.77-22.13-16.6-5.53-22.13,0-8.3,5.53-13.83,8.3-5.53,0-22.12,0-33.19,2.77-33.19,0,44.25-33.19,52.55-33.19h16.59s5.53-58.07-8.3-66.37-58.07-24.89-94-5.53-22.13,30.42-36,27.66-27.66-13.83-30.42-13.83-2.77,22.12-8.3,22.12-22.13-8.29-27.66-11.06,0,30.42-5.53,30.42-38.71,2.77-44.25,2.77,5.54,16.59-2.76,16.59-44.25-13.83-55.31-8.3-16.59,30.42-16.59,30.42,22.12,22.13,27.65,16.6-19.36,8.29-19.36,16.59-2.76,19.36-8.29,19.36-13.83-2.77-11.07-11.06a13.89,13.89,0,0,0-2.76-13.83H116.67l-5.53,2.76V179.41s11.06-5.53,8.3-8.29-24.89-16.6-33.19-13.83-16.59,27.65-16.59,36,24.89,19.36,16.59,22.12-16.59,2.77-16.59,8.3-2.77,11.06,0,13.83,33.18,8.29,33.18,8.29,59.87,80.12,85.25,71.86,50.26,11.11,53-22.08S263.24,328.75,290.9,312.16Z"/><path class="cls-7" d="M390.9,409.16,393.66,376l11.07,2.77s-5.54-36,2.76-44.25S440.68,340,451.74,340s47-8.3,55.31,2.76,11.06,22.13,13.83,19.36-13.83-49.78,0-58.07,69.13-16.6,71.9-24.89,8.3-19.36,2.77-22.13-16.6-5.53-22.13,0-8.3,5.53-13.83,8.3-5.53,0-22.12,0-33.19,2.77-33.19,0,44.25-33.19,52.55-33.19h16.59s5.53-58.07-8.3-66.37-58.07-24.89-94-5.53-22.13,30.42-36,27.66-27.66-13.83-30.42-13.83-2.77,22.12-8.3,22.12-22.13-8.29-27.66-11.06,0,30.42-5.53,30.42-38.71,2.77-44.25,2.77,5.54,16.59-2.76,16.59-44.25-13.83-55.31-8.3-16.59,30.42-16.59,30.42,22.12,22.13,27.65,16.6-19.36,8.29-19.36,16.59-2.76,19.36-8.29,19.36-13.83-2.77-11.07-11.06a13.89,13.89,0,0,0-2.76-13.83H216.67l-5.53,2.76V276.41s11.06-5.53,8.3-8.29-24.89-16.6-33.19-13.83-16.59,27.65-16.59,36,24.89,19.36,16.59,22.12-16.59,2.77-16.59,8.3-2.77,11.06,0,13.83,33.18,8.29,33.18,8.29,59.87,80.12,85.25,71.86,50.26,11.11,53-22.08S363.24,425.75,390.9,409.16Z"/><path class="cls-8" d="M437.76,321.11l2.77-33.18,11.06,2.76s-5.53-35.95,2.77-44.25S487.54,252,498.61,252s47-8.29,55.31,2.77S565,276.86,567.74,274.1s-13.82-49.78,0-58.08,69.14-16.59,71.91-24.89,8.29-19.36,2.76-22.12-16.59-5.53-22.12,0-8.3,5.53-13.83,8.3-5.53,0-22.12,0-33.19,2.76-33.19,0,44.25-33.19,52.54-33.19h16.6S625.82,86,612,77.75s-58.07-24.89-94-5.53-22.12,30.42-36,27.65S454.36,86,451.59,86s-2.76,22.13-8.29,22.13-22.13-8.3-27.66-11.06,0,30.42-5.53,30.42-38.72,2.76-44.25,2.76,5.53,16.6-2.76,16.6-44.25-13.83-55.31-8.3S291.19,169,291.19,169s22.13,22.12,27.66,16.59-19.36,8.3-19.36,16.6-2.77,19.35-8.3,19.35-13.83-2.76-11.06-11.06a13.89,13.89,0,0,0-2.77-13.83H263.54L258,199.43V188.37s11.06-5.53,8.29-8.3-24.89-16.59-33.18-13.83-16.6,27.66-16.6,36,24.89,19.35,16.6,22.12-16.6,2.76-16.6,8.3-2.76,11.06,0,13.82,33.19,8.3,33.19,8.3S309.57,334.85,335,326.6s50.27,11.11,53-22.08S410.11,337.71,437.76,321.11Z"/><path class="cls-9" d="M202.39,311.2S208.66,39.85,0,39.85C0,39.85,21.49,311.2,202.39,311.2Z"/><path class="cls-10" d="M378.94,97.59C414,51.13,500.82,68.41,500.82,68.41s54.57,79.33,17.88,127.94c0,0-183.32-26.18-234,41S378.94,97.59,378.94,97.59Z"/><path class="cls-11" d="M409.39,97.59c35.07-46.46,121.88-29.18,121.88-29.18s54.57,79.33,17.88,127.94c0,0-183.32-26.18-234,41S409.39,97.59,409.39,97.59Z"/><path class="cls-12" d="M215.42,277.18c17.81-13.86,17.81-23.75,17.81-29.69s-5.94,0-5.94,0V227.7l17.82,2s-1,10.88,2,7.91,20.78,12.87,25.73,7.92-21.77-7.92-21.77-27.71h-9.9S227.29,196,215.42,196s-19.79,21.77-19.79,33.65,5.93,17.81,0,17.81-15.84-21.77-23.75-21.77-18.81,1-23.75,5.93L158,243.53l-13.85,7.92s39.58,31.66,51.46,31.66A35.54,35.54,0,0,0,215.42,277.18Z"/><path class="cls-13" d="M466.59,311.2S460.32,39.85,669,39.85C669,39.85,647.48,311.2,466.59,311.2Z"/><path class="cls-14" d="M403.45,271.34S397.19,0,605.84,0C605.84,0,584.35,271.34,403.45,271.34Z"/><path class="cls-15" d="M408.76,241.36S142,17.55,6.6,185.19C6.6,185.19,291.35,386.7,408.76,241.36Z"/><path class="cls-16" d="M268.6,241.36S535.33,17.55,670.76,185.19C670.76,185.19,386,386.7,268.6,241.36Z"/><path class="cls-17" d="M4,182.57c0,183.36,149.87,332,334.75,332s334.75-148.64,334.75-332Z"/></g></g></g></svg>